{
  "accessors": [
    {
      "bufferView": 2,
      "componentType": 5126,
      "count": 7750,
      "max": [
        0.1276862472295761,
        0.11699023097753525,
        0.8511585593223572
      ],
      "min": [
        -0.1276862472295761,
        -0.16456112265586853,
        0.5387990474700928
      ],
      "type": "VEC3"
    },
    {
      "bufferView": 2,
      "byteOffset": 93000,
      "componentType": 5126,
      "count": 7750,
      "max": [
        1.0,
        1.0,
        0.9994316697120667
      ],
      "min": [
        -1.0,
        -0.999985933303833,
        -0.9998487234115601
      ],
      "type": "VEC3"
    },
    {
      "bufferView": 3,
      "componentType": 5126,
      "count": 7750,
      "max": [
        1.0,
        0.9998511075973511,
        0.9997227191925049,
        1.0
      ],
      "min": [
        -0.9999995231628418,
        -0.9998036623001099,
        -0.9999708533287048,
        -1.0
      ],
      "type": "VEC4"
    },
    {
      "bufferView": 1,
      "componentType": 5126,
      "count": 7750,
      "max": [
        0.9877547025680542,
        0.9994484782218933
      ],
      "min": [
        0.0005515587399713695,
        0.0005515587399713695
      ],
      "type": "VEC2"
    },
    {
      "bufferView": 1,
      "byteOffset": 62000,
      "componentType": 5126,
      "count": 7750,
      "max": [
        0.9877547025680542,
        0.9994484782218933
      ],
      "min": [
        0.0005515587399713695,
        0.0005515587399713695
      ],
      "type": "VEC2"
    },
    {
      "bufferView": 0,
      "componentType": 5125,
      "count": 25440,
      "type": "SCALAR"
    },
    {
      "bufferView": 2,
      "byteOffset": 186000,
      "componentType": 5126,
      "count": 3121,
      "max": [
        0.017778484150767326,
        0.06896670907735825,
        0.8617002964019775
      ],
      "min": [
        -0.017778484150767326,
        -0.12845811247825623,
        0.7728593945503235
      ],
      "type": "VEC3"
    },
    {
      "bufferView": 2,
      "byteOffset": 223452,
      "componentType": 5126,
      "count": 3121,
      "max": [
        1.0,
        0.9999585747718811,
        0.9999184608459473
      ],
      "min": [
        -1.0,
        -0.9983024001121521,
        -0.999952495098114
      ],
      "type": "VEC3"
    },
    {
      "bufferView": 3,
      "byteOffset": 124000,
      "componentType": 5126,
      "count": 3121,
      "max": [
        0.7743890285491943,
        0.9958133101463318,
        0.9999560713768005,
        1.0
      ],
      "min": [
        -0.9065536260604858,
        -0.9999996423721313,
        -0.999819815158844,
        -1.0
      ],
      "type": "VEC4"
    },
    {
      "bufferView": 1,
      "byteOffset": 124000,
      "componentType": 5126,
      "count": 3121,
      "max": [
        0.280288428068161,
        0.17182104289531708
      ],
      "min": [
        0.034790314733982086,
        0.003130987286567688
      ],
      "type": "VEC2"
    },
    {
      "bufferView": 1,
      "byteOffset": 148968,
      "componentType": 5126,
      "count": 3121,
      "max": [
        0.280288428068161,
        0.17182104289531708
      ],
      "min": [
        0.034790314733982086,
        0.003130987286567688
      ],
      "type": "VEC2"
    },
    {
      "bufferView": 0,
      "byteOffset": 101760,
      "componentType": 5125,
      "count": 13908,
      "type": "SCALAR"
    }
  ],
  "asset": {
    "extras": {
      "author": "Outworld Studios (https://sketchfab.com/outworldstudios)",
      "license": "CC-BY-SA-4.0 (http://creativecommons.org/licenses/by-sa/4.0/)",
      "source": "https://sketchfab.com/3d-models/star-wars-phase-2-clone-helmet-updated-ccd42c5dfe57477f9768903f17ff2b60",
      "title": "Star Wars Phase 2 Clone Helmet [Updated]"
    },
    "generator": "Sketchfab-15.19.0",
    "version": "2.0"
  },
  "bufferViews": [
    {
      "buffer": 0,
      "byteLength": 157392,
      "name": "floatBufferViews",
      "target": 34963
    },
    {
      "buffer": 0,
      "byteLength": 173936,
      "byteOffset": 157392,
      "byteStride": 8,
      "name": "floatBufferViews",
      "target": 34962
    },
    {
      "buffer": 0,
      "byteLength": 260904,
      "byteOffset": 331328,
      "byteStride": 12,
      "name": "floatBufferViews",
      "target": 34962
    },
    {
      "buffer": 0,
      "byteLength": 173936,
      "byteOffset": 592232,
      "byteStride": 16,
      "name": "floatBufferViews",
      "target": 34962
    }
  ],
  "buffers": [
    {
      "byteLength": 766168,
      "uri": "scene.bin"
    }
  ],
  "extensionsUsed": [
    "KHR_materials_specular",
    "KHR_materials_clearcoat"
  ],
  "images": [
    {
      "uri": "textures/armor.001_baseColor.png"
    },
    {
      "uri": "textures/armor.001_metallicRoughness.png"
    },
    {
      "uri": "textures/armor.001_normal.png"
    },
    {
      "uri": "textures/armor.001_specularf0.png"
    }
  ],
  "materials": [
    {
      "doubleSided": true,
      "extensions": {
        "KHR_materials_specular": {
          "specularColorFactor": [
            1.0,
            1.0,
            1.0
          ],
          "specularFactor": 1.0,
          "specularTexture": {
            "index": 3
          }
        }
      },
      "name": "armor.001",
      "normalTexture": {
        "index": 2
      },
      "occlusionTexture": {
        "index": 1
      },
      "pbrMetallicRoughness": {
        "baseColorTexture": {
          "index": 0
        },
        "metallicFactor": 0.0,
        "metallicRoughnessTexture": {
          "index": 1
        }
      }
    },
    {
      "doubleSided": true,
      "extensions": {
        "KHR_materials_clearcoat": {
          "clearcoatFactor": 1.0,
          "clearcoatRoughnessFactor": 0.04
        },
        "KHR_materials_specular": {
          "specularColorFactor": [
            1.0,
            1.0,
            1.0
          ],
          "specularFactor": 1.0,
          "specularTexture": {
            "index": 3
          }
        }
      },
      "name": "armor.005",
      "normalTexture": {
        "index": 2
      },
      "occlusionTexture": {
        "index": 1
      },
      "pbrMetallicRoughness": {
        "baseColorTexture": {
          "index": 0
        },
        "metallicFactor": 0.0,
        "metallicRoughnessTexture": {
          "index": 1
        }
      }
    }
  ],
  "meshes": [
    {
      "name": "Helm_armor.001_0",
      "primitives": [
        {
          "attributes": {
            "NORMAL": 1,
            "POSITION": 0,
            "TANGENT": 2,
            "TEXCOORD_0": 3,
            "TEXCOORD_1": 4
          },
          "indices": 5,
          "material": 0,
          "mode": 4
        }
      ]
    },
    {
      "name": "Helm_armor.005_0",
      "primitives": [
        {
          "attributes": {
            "NORMAL": 7,
            "POSITION": 6,
            "TANGENT": 8,
            "TEXCOORD_0": 9,
            "TEXCOORD_1": 10
          },
          "indices": 11,
          "material": 1,
          "mode": 4
        }
      ]
    }
  ],
  "nodes": [
    {
      "children": [
        1
      ],
      "matrix": [
        1.0,
        0.0,
        0.0,
        0.0,
        0.0,
        2.220446049250313e-16,
        -1.0,
        0.0,
        0.0,
        1.0,
        2.220446049250313e-16,
        0.0,
        0.0,
        0.0,
        0.0,
        1.0
      ],
      "name": "Sketchfab_model"
    },
    {
      "children": [
        2
      ],
      "matrix": [
        0.009999999776482582,
        0.0,
        0.0,
        0.0,
        0.0,
        0.0,
        0.009999999776482582,
        0.0,
        0.0,
        -0.009999999776482582,
        0.0,
        0.0,
        0.0,
        0.0,
        0.0,
        1.0
      ],
      "name": "34fad453058e45c2be62779fd518eea5.fbx"
    },
    {
      "children": [
        3
      ],
      "name": "RootNode"
    },
    {
      "children": [
        4,
        5
      ],
      "matrix": [
        100.0,
        0.0,
        0.0,
        0.0,
        0.0,
        -1.629206793918314e-05,
        -99.99999999999868,
        0.0,
        0.0,
        99.99999999999868,
        -1.629206793918314e-05,
        0.0,
        0.0,
        0.0,
        0.0,
        1.0
      ],
      "name": "Helm"
    },
    {
      "mesh": 0,
      "name": "Helm_armor.001_0"
    },
    {
      "mesh": 1,
      "name": "Helm_armor.005_0"
    }
  ],
  "samplers": [
    {
      "magFilter": 9729,
      "minFilter": 9987,
      "wrapS": 10497,
      "wrapT": 10497
    }
  ],
  "scene": 0,
  "scenes": [
    {
      "name": "Sketchfab_Scene",
      "nodes": [
        0
      ]
    }
  ],
  "textures": [
    {
      "sampler": 0,
      "source": 0
    },
    {
      "sampler": 0,
      "source": 1
    },
    {
      "sampler": 0,
      "source": 2
    },
    {
      "sampler": 0,
      "source": 3
    }
  ]
}
